# xmcd CD database file
#
# Track frame offsets:
#	150
#	16905
#	53027
#	76367
#	88865
#	106137
#	126727
#	134365
#	145735
#	170242
#	174902
#	203375
#	226360
#	232717
#	238102
#	246412
#
# Disc length: 3637 seconds
#
# Revision: 7
# Processed by: cddbd v1.5.2PL0 Copyright (c) Steve Scherf et al.
# Submitted via: CDex 1.51
#
DISCID=d20e3310
DTITLE=Gianluigi Trovesi  - Fugace
DYEAR=2003
DGENRE=Jazz
TTITLE0=As Strange As A Ballad
TTITLE1=Sogno d'Orfeo (Andante maest(r)oso~Allegretto)
TTITLE2=African Tryptich (Wild Lake)
TTITLE3=African Tryptich (Scarlet Dunes)
TTITLE4=African Tryptich (Western Dream)
TTITLE5=Canto Di Lavoro
TTITLE6=Clumsy Dancing Of The Fat Bird
TTITLE7=Siparietto I
TTITLE8=Blues And West
TTITLE9=Siparietto II
TTITLE10=Il Domatore (Senza Tigre~Con Il Leone)
TTITLE11=Ramble (Oh Didn't He Ramble~She's Straight)
TTITLE12=Siparietto III
TTITLE13=Fugace
TTITLE14=Siparietto IV
TTITLE15=Totò Nei Caraibi (Alla Fiera~Andan-Tina~Totolypso)
EXTD=ECM 1827 YEAR: 2003
EXTT0=
EXTT1=
EXTT2=
EXTT3=
EXTT4=
EXTT5=
EXTT6=
EXTT7=
EXTT8=
EXTT9=
EXTT10=
EXTT11=
EXTT12=
EXTT13=
EXTT14=
EXTT15=
PLAYORDER=
